<?xml version="1.0" encoding="utf-8" ?>
<svg xmlns="http://www.w3.org/2000/svg" xmlns:cc="http://creativecommons.org/ns#" xmlns:dc="http://purl.org/dc/elements/1.1/" xmlns:ev="http://www.w3.org/2001/xml-events" xmlns:inkscape="http://www.inkscape.org/namespaces/inkscape" xmlns:rdf="http://www.w3.org/1999/02/22-rdf-syntax-ns#" xmlns:sodipodi="http://sodipodi.sourceforge.net/DTD/sodipodi-0.dtd" xmlns:xlink="http://www.w3.org/1999/xlink" baseProfile="tiny" height="21.0cm" version="1.2" viewBox="0 0 1122.5196850393702 793.7007874015749" width="29.7cm">
  <metadata>
    <rdf:RDF>
      <cc:Work>
        <dc:format>image/svg+xml</dc:format>
        <dc:source>vpype text 'Dummy plot' scaleto 19cm 27.7cm write --landscape --page-size a4 --center ./dummy.svg
</dc:source>
        <dc:date>2021-10-25T22:19:38.630609</dc:date>
      </cc:Work>
    </rdf:RDF>
  </metadata>
  <defs/>
  <g fill="none" id="layer1" inkscape:groupmode="layer" inkscape:label="1" stroke="#00f" style="display:inline">
    <line x1="202.2047" x2="202.2047" y1="342.2116" y2="424.1698"/>
    <polyline points="202.2047,342.2116 229.5241,342.2116 241.2325,346.1143 249.038,353.9199 252.9408,361.7254 256.8435,373.4338 256.8435,392.9476 252.9408,404.6559 249.038,412.4615 241.2325,420.267 229.5241,424.1698 202.2047,424.1698"/>
    <polyline points="284.163,369.531 284.163,408.5587 288.0657,420.267 295.8713,424.1698 307.5796,424.1698 315.3851,420.267 327.0935,408.5587"/>
    <line x1="327.0935" x2="327.0935" y1="369.531" y2="424.1698"/>
    <line x1="358.3156" x2="358.3156" y1="369.531" y2="424.1698"/>
    <polyline points="358.3156,385.1421 370.024,373.4338 377.8295,369.531 389.5378,369.531 397.3434,373.4338 401.2461,385.1421 401.2461,424.1698"/>
    <polyline points="401.2461,385.1421 412.9545,373.4338 420.76,369.531 432.4683,369.531 440.2739,373.4338 444.1767,385.1421 444.1767,424.1698"/>
    <line x1="475.3988" x2="475.3988" y1="369.531" y2="424.1698"/>
    <polyline points="475.3988,385.1421 487.1072,373.4338 494.9127,369.531 506.621,369.531 514.4266,373.4338 518.3293,385.1421 518.3293,424.1698"/>
    <polyline points="518.3293,385.1421 530.0377,373.4338 537.8432,369.531 549.5515,369.531 557.3571,373.4338 561.2598,385.1421 561.2598,424.1698"/>
    <line x1="584.6765" x2="608.0931" y1="369.531" y2="424.1698"/>
    <polyline points="631.5098,369.531 608.0931,424.1698 600.2876,439.7809 592.482,447.5864 584.6765,451.4892 580.7737,451.4892"/>
    <line x1="717.3708" x2="717.3708" y1="369.531" y2="451.4892"/>
    <polyline points="717.3708,381.2393 725.1763,373.4338 732.9819,369.531 744.6902,369.531 752.4957,373.4338 760.3013,381.2393 764.204,392.9476 764.204,400.7532 760.3013,412.4615 752.4957,420.267 744.6902,424.1698 732.9819,424.1698 725.1763,420.267 717.3708,412.4615"/>
    <line x1="791.5235" x2="791.5235" y1="342.2116" y2="424.1698"/>
    <polygon points="838.3567,369.531 830.5512,373.4338 822.7456,381.2393 818.8429,392.9476 818.8429,400.7532 822.7456,412.4615 830.5512,420.267 838.3567,424.1698 850.065,424.1698 857.8706,420.267 865.6761,412.4615 869.5789,400.7532 869.5789,392.9476 865.6761,381.2393 857.8706,373.4338 850.065,369.531"/>
    <polyline points="900.8011,342.2116 900.8011,408.5587 904.7039,420.267 912.5094,424.1698 920.315,424.1698"/>
    <line x1="889.0928" x2="916.4122" y1="369.531" y2="369.531"/>
  </g>
</svg>
